<!--?xml version="1.0" standalone="no"?-->
              <svg id="sw-js-blob-svg" viewBox="0 0 100 100" xmlns="http://www.w3.org/2000/svg" version="1.1">
                    <defs> 
                        <linearGradient id="sw-gradient" x1="0" x2="1" y1="1" y2="0">
                            <stop id="stop1" stop-color="rgba(248, 117, 55, 1)" offset="0%"></stop>
                            <stop id="stop2" stop-color="rgba(251, 168, 31, 1)" offset="100%"></stop>
                        </linearGradient>
                    </defs>
                <path fill="url(#sw-gradient)" d="M22.7,-30.5C30,-30.7,36.7,-25.3,37.9,-18.5C39.2,-11.8,34.9,-3.7,33.3,4.5C31.7,12.7,32.7,21,29.6,26.9C26.4,32.8,19.1,36.3,11.9,36.6C4.7,36.9,-2.2,34,-8.2,30.9C-14.2,27.8,-19.3,24.5,-23.5,20.1C-27.6,15.7,-30.9,10.3,-33.8,3.6C-36.8,-3.1,-39.5,-11.2,-37.6,-17.9C-35.7,-24.7,-29.3,-30.1,-22.2,-29.9C-15.2,-29.8,-7.6,-24.1,0.1,-24.2C7.7,-24.3,15.5,-30.2,22.7,-30.5Z" width="100%" height="100%" transform="translate(50 50)" stroke-width="0" style="transition: all 0.3s ease 0s;"></path>
              </svg>